<svg width="385" height="418" viewBox="0 0 385 418" fill="none" xmlns="http://www.w3.org/2000/svg">
<rect x="183" y="169" width="21" height="16" fill="#F24B4B"/>
<path d="M209.846 0.408203C211.53 1.40293 213.3 1.7241 214.918 2.41792C230.63 9.15517 244.107 19.1457 256.356 30.9176C257.373 31.8949 258.37 32.5386 259.852 32.6939C269.015 33.6542 287.451 43.3103 295.5 47.837C296.204 48.2332 299.446 50.8348 298.631 49.9845C295 51.2525 296 50.872 294 51.6585C292.5 52.3174 292 52.551 290.52 53.2855C290.074 53.1379 292.41 52.7904 292 52.551C291.412 52.2078 291.215 53.6759 290.52 53.2855C281.875 48.4338 265.528 40.3649 257.145 39.6985C255.482 39.5663 254.233 38.8366 253.061 37.6876C242.32 27.1573 230.613 17.9468 217.044 11.2599C209.735 7.65775 202.142 4.93147 194.038 3.98907C190.438 3.57046 186.909 4.78986 183.462 5.77751C170.913 9.37348 159.996 16.0437 149.769 23.9682C144.334 28.1794 139.206 32.7423 134.384 37.6424C133.118 38.9294 131.672 39.5476 129.885 39.7033C110.527 41.3903 95.4701 50.2324 85.171 66.8508C77.7633 78.8038 74.1022 92.0135 72.2477 105.832C71.0403 114.829 70.7832 123.864 71.0904 132.909C71.4879 144.612 72.9754 156.189 75.6714 167.601C76.0162 169.06 76.6207 169.681 78.2369 169.782C92.7263 170.686 106.877 169.046 120.492 163.927C139.765 156.681 152.758 143.301 159.053 123.566C160.298 119.663 162.355 118.966 165.792 121.189C172.038 125.231 179.009 127.23 186.307 127.943C195.434 128.833 204.483 128.335 213.237 125.212C216.062 124.204 218.787 122.987 221.321 121.371C225.241 118.87 227.043 119.508 228.493 124C233.378 139.127 242.465 150.904 256.255 158.934C265.617 164.386 275.783 167.429 286.454 168.864C293.932 169.87 301.43 170.544 308.996 169.779C310.511 169.626 311.268 169.203 311.647 167.642C313.204 161.229 314.251 154.734 315.105 148.198C315.337 146.42 314.477 146.215 313.009 146.151C299.627 145.57 288.067 140.763 278.519 131.234C264.802 117.544 260.605 95.0149 268.617 77.3595C273.65 66.2685 280.987 58.2305 290.52 53.2855C295.988 50.4492 302.178 48.6304 309.071 47.837C330.398 45.3821 351.442 58.4627 359.364 78.5756C368.209 101.034 359.949 126.068 339.439 138.779C334.967 141.55 330.144 143.594 324.976 144.662C323.302 145.009 322.519 145.831 322.362 147.466C321.695 154.438 320.363 161.301 318.84 168.125C318.507 169.617 318.838 170.315 320.315 170.837C332.852 175.265 338.727 184.815 339.687 197.48C340.708 210.945 335.878 222.53 326.856 232.461C323.175 236.513 319.05 240.034 314.522 243.075C313.185 243.972 312.699 245.09 312.526 246.606C309.621 272.071 303.068 296.51 291.646 319.518C285.321 332.258 277.403 343.908 267.366 354.087C253.111 368.543 236.154 377.943 216.246 381.926C196.098 385.957 176.224 384.852 156.844 377.965C135.656 370.436 119.487 356.381 106.748 338.138C93.7605 319.539 85.7705 298.752 80.2544 276.901C77.7396 266.938 75.9318 256.853 74.872 246.633C74.7114 245.085 74.1517 243.939 72.744 242.971C64.112 237.03 56.7209 229.886 52.1826 220.253C47.3098 209.909 45.8411 199.195 49.614 188.163C52.4955 179.737 58.1818 173.908 66.62 170.963C68.4929 170.309 68.9285 169.537 68.4716 167.567C64.688 151.254 63.1727 134.697 63.9961 117.984C64.7939 101.791 67.6753 86.0021 74.6889 71.211C85.3047 48.8234 102.701 35.6727 127.458 32.6972C129.096 32.5003 130.203 31.7351 131.292 30.6718C139.887 22.2833 149.191 14.8095 159.504 8.61443C164.764 5.45483 170.313 2.91744 176.08 0.501556C187.343 0.408203 198.499 0.408203 209.846 0.408203ZM78.0114 176.9C75.444 176.918 72.8765 176.452 70.3166 177.215C62.926 179.417 58.234 184.318 56.0116 191.592C53.4213 200.072 54.6966 208.316 58.1878 216.234C62.277 225.51 69.3156 232.283 77.6927 237.634C80.5332 239.448 81.7437 241.613 81.6946 244.773C81.6893 245.112 81.7112 245.455 81.7545 245.791C83.6365 260.435 86.5331 274.86 91.0619 288.932C96.9149 307.119 104.793 324.284 116.603 339.45C129.47 355.973 145.635 367.746 165.941 373.422C176.961 376.503 188.218 377.307 199.637 376.794C212.507 376.216 224.775 373.362 236.374 367.772C252.662 359.923 265.264 347.869 275.401 333.083C285.534 318.301 292.468 302.017 297.55 284.913C301.638 271.154 304.518 257.136 305.794 242.816C305.956 240.992 306.67 239.647 308.268 238.638C313.114 235.579 317.624 232.077 321.476 227.806C329.771 218.607 333.943 207.977 332.252 195.466C330.638 183.52 321.004 175.863 310.241 176.828C295.189 178.178 280.415 176.302 266.11 171.257C247.109 164.557 232.962 152.452 224.615 133.886C223.928 132.357 223.581 130.661 222.557 129.293C203.265 137.493 184.046 137.469 164.866 129.284C164.687 129.542 164.542 129.695 164.462 129.876C163.996 130.933 163.544 131.996 163.089 133.059C156.103 149.381 144.362 161.077 128.299 168.378C112.444 175.586 95.6957 177.952 78.0114 176.9ZM349.143 119.439C356.758 106.9 357.903 93.7426 352.301 80.2342C343.748 59.6098 319.443 49.4652 298.631 57.5788C273.841 67.2434 264.078 96.7988 278.217 119.379C287.778 134.649 306.789 142.213 324.084 137.62C334.659 134.811 342.858 128.686 349.143 119.439Z" fill="black"/>
<path d="M257.145 39.6985C255.482 39.5663 254.233 38.8366 253.061 37.6876C242.32 27.1573 230.613 17.9468 217.044 11.2599C209.735 7.65775 202.142 4.93147 194.038 3.98907C190.438 3.57046 186.909 4.78986 183.462 5.77751C170.913 9.37348 159.996 16.0437 149.769 23.9682C144.334 28.1794 139.206 32.7423 134.384 37.6424C133.118 38.9294 131.672 39.5476 129.885 39.7033C110.527 41.3903 95.4701 50.2324 85.171 66.8508C77.7633 78.8038 74.1022 92.0135 72.2477 105.832C71.0403 114.829 70.7832 123.864 71.0904 132.909C71.4879 144.612 72.9754 156.189 75.6714 167.601C76.0162 169.06 76.6207 169.681 78.2369 169.782C92.7263 170.686 106.877 169.046 120.492 163.927C139.765 156.681 152.758 143.301 159.053 123.566C160.298 119.663 162.355 118.966 165.792 121.189C172.038 125.231 179.009 127.23 186.307 127.943C195.434 128.833 204.483 128.335 213.237 125.212C216.062 124.204 218.787 122.987 221.321 121.371C225.241 118.87 227.043 119.508 228.493 124C233.378 139.127 242.465 150.904 256.255 158.934C265.617 164.386 275.783 167.429 286.454 168.864C293.932 169.87 301.43 170.544 308.996 169.779C310.511 169.626 311.268 169.203 311.647 167.642C313.204 161.229 314.251 154.734 315.105 148.198C315.337 146.42 314.477 146.215 313.009 146.151C299.627 145.57 288.067 140.763 278.519 131.234C264.802 117.544 260.605 95.0149 268.617 77.3595C273.65 66.2685 280.987 58.2305 290.52 53.2855C281.875 48.4338 265.528 40.3649 257.145 39.6985Z" fill="#72360F"/>
<path d="M349.143 119.439C356.758 106.9 357.903 93.7426 352.301 80.2342C343.748 59.6098 319.443 49.4652 298.631 57.5788C273.841 67.2434 264.078 96.7988 278.217 119.379C287.778 134.649 306.789 142.213 324.084 137.62C334.659 134.811 342.858 128.686 349.143 119.439Z" fill="#58EB14"/>
<path d="M78.0114 176.9C75.444 176.918 72.8765 176.452 70.3166 177.215C62.926 179.417 58.234 184.318 56.0116 191.592C53.4213 200.072 54.6966 208.316 58.1878 216.234C62.277 225.51 69.3156 232.283 77.6927 237.634C80.5332 239.448 81.7437 241.613 81.6946 244.773C81.6893 245.112 81.7112 245.455 81.7545 245.791C83.6365 260.435 86.5331 274.86 91.0619 288.932C96.9149 307.119 104.793 324.284 116.603 339.45C129.47 355.973 145.635 367.746 165.941 373.422C176.961 376.503 188.218 377.307 199.637 376.794C212.507 376.216 224.775 373.362 236.374 367.772C252.662 359.923 265.264 347.869 275.401 333.083C285.534 318.301 292.468 302.017 297.55 284.913C301.638 271.154 304.518 257.136 305.794 242.816C305.956 240.992 306.67 239.647 308.268 238.638C313.114 235.579 317.624 232.077 321.476 227.806C329.771 218.607 333.943 207.977 332.252 195.466C330.638 183.52 321.004 175.863 310.241 176.828C295.189 178.178 280.415 176.302 266.11 171.257C247.109 164.557 232.962 152.452 224.615 133.886C223.928 132.357 223.581 130.661 222.557 129.293C203.265 137.493 184.046 137.469 164.866 129.284C164.687 129.542 164.542 129.695 164.462 129.876C163.996 130.933 163.544 131.996 163.089 133.059C156.103 149.381 144.362 161.077 128.299 168.378C112.444 175.586 95.6957 177.952 78.0114 176.9Z" fill="#FFCD94"/>
<path d="M110.748 222.605C110.301 220.952 109.659 220.115 107.774 220.103C100.627 220.059 94.3076 214.159 93.7041 207.238C93.0159 199.347 98.0063 192.442 105.433 190.941C109.145 190.19 112.613 190.824 115.812 192.755C117.071 193.514 117.973 193.408 119.096 192.522C128.919 184.78 138.756 177.055 148.649 169.404C149.938 168.407 149.703 167.476 149.369 166.232C147.426 159.005 150.768 151.879 157.494 148.783C163.858 145.853 171.722 148.056 175.716 153.999C177.709 156.963 178.615 160.297 178.083 163.876C177.896 165.133 178.319 165.669 179.347 166.268C181.276 167.392 182.633 167.58 184.644 165.868C190.144 161.186 198.18 161.556 203.652 166.566C205.5 168.258 206.574 166.712 207.969 166.26C209.252 165.844 209.363 164.974 209.215 163.698C208.336 156.083 214.097 148.626 221.479 147.676C229.831 146.602 236.997 151.785 238.359 159.755C238.773 162.178 238.638 164.497 237.862 166.779C237.508 167.82 237.585 168.517 238.509 169.237C248.543 177.042 258.568 184.857 268.538 192.743C269.725 193.682 270.475 193.34 271.573 192.726C277.09 189.641 282.567 189.856 287.665 193.574C292.538 197.129 294.596 202.107 293.501 208.06C292.343 214.351 288.383 218.229 282.24 219.899C281.914 219.987 281.556 220.14 281.247 220.082C277.918 219.464 276.942 221.479 276.014 224.192C272.715 233.837 269.201 243.409 265.716 252.99C265.26 254.242 265.355 254.986 266.457 255.933C274.67 262.994 272.864 275.94 262.991 280.463C260.958 281.394 260.225 282.424 260.279 284.692C260.45 291.831 260.382 298.977 260.308 306.119C260.291 307.686 260.68 308.544 262.25 309.159C268.614 311.655 272.625 318.535 271.513 324.749C270.174 332.229 264.57 337.438 257.346 337.63C252.779 337.751 248.805 336.055 245.774 332.58C244.834 331.503 244.069 331.372 242.818 331.835C231.991 335.847 221.152 339.829 210.296 343.759C208.947 344.247 208.467 344.902 208.396 346.387C208.026 354.202 202.462 360.146 194.98 360.919C188.238 361.615 181.566 357.064 179.629 350.373C179.255 349.081 178.986 347.711 178.974 346.374C178.961 345.008 178.518 344.3 177.216 343.826C166.236 339.831 155.266 335.809 144.326 331.705C142.909 331.173 142.293 331.754 141.436 332.652C137.355 336.931 132.399 338.644 126.63 337.028C120.826 335.402 117.256 331.486 115.965 325.575C114.528 319 118.261 311.902 124.659 309.296C126.312 308.623 126.911 307.779 126.892 306.003C126.811 298.385 126.823 290.765 126.914 283.147C126.93 281.739 126.296 281.337 125.182 280.874C114.688 276.519 112.433 263.663 120.849 256.014C121.947 255.016 122.124 254.205 121.641 252.876C117.994 242.848 114.407 232.798 110.748 222.605ZM184.678 334.418C191.656 329.616 199.411 330.483 204.988 336.743C205.657 337.494 206.188 337.822 207.223 337.432C218.348 333.247 229.486 329.099 240.633 324.973C241.665 324.59 242.127 324.051 242.152 322.903C242.293 316.22 245.529 311.594 251.663 309.036C252.77 308.574 253.256 307.994 253.251 306.788C253.218 298.897 253.219 291.007 253.251 283.116C253.255 281.998 252.855 281.367 251.806 280.978C250.469 280.482 249.202 279.821 248.054 278.947C243.028 275.12 240.92 268.695 242.757 262.758C244.649 256.644 250.145 252.509 256.853 252.313C258.024 252.279 258.528 251.931 258.904 250.879C262.647 240.381 266.422 229.894 270.219 219.416C270.612 218.331 270.542 217.626 269.586 216.78C264.759 212.506 263.086 207.216 264.969 200.971C265.325 199.791 265.077 199.123 264.137 198.39C254.112 190.577 244.11 182.734 234.122 174.872C233.319 174.24 232.74 174.171 231.791 174.699C225.157 178.394 219.437 177.784 213.571 172.872C213.115 172.491 212.759 172.037 211.99 172.209C209.432 172.785 208.264 174.295 208.457 176.934C208.472 177.137 208.471 177.342 208.467 177.546C208.33 185.732 201.172 192.628 193.269 192.188C184.609 191.706 178.228 184.566 179.03 176.087C179.167 174.635 178.967 173.788 177.572 173.254C176.128 172.702 175.045 171.621 173.267 173.221C168.288 177.703 161.649 178.29 156.065 174.979C154.685 174.16 153.842 174.329 152.671 175.256C142.97 182.93 133.237 190.563 123.473 198.157C122.342 199.037 122.028 199.816 122.458 201.24C124.249 207.171 122.618 212.264 118.15 216.389C116.911 217.533 116.782 218.465 117.307 219.912C121.018 230.132 124.692 240.366 128.327 250.614C128.743 251.786 129.218 252.269 130.593 252.313C139.033 252.584 145.553 259.282 145.24 267.462C144.997 273.849 141.685 278.288 135.869 280.859C134.86 281.305 133.898 281.594 133.91 283.06C133.972 290.813 133.967 298.568 133.957 306.322C133.955 307.778 134.495 308.523 135.945 309.133C141.737 311.573 144.858 316.097 145.224 322.355C145.321 324.012 145.895 324.729 147.374 325.271C157.642 329.03 167.901 332.817 178.116 336.718C180.291 337.549 182.05 337.949 183.384 335.54C183.601 335.149 184.083 334.905 184.678 334.418ZM200.068 350.223C203.417 345.138 199.678 338.915 194.109 338.541C190.507 338.299 187.135 340.83 186.225 344.335C185.382 347.577 187.126 351.352 190.19 352.923C193.681 354.713 197.256 353.81 200.068 350.223ZM122.891 267.491C123.106 268.343 123.224 269.234 123.551 270.04C125.066 273.789 129.251 275.63 132.97 274.236C136.935 272.75 138.948 268.809 137.739 264.901C136.661 261.418 133.264 259.051 129.847 259.402C125.894 259.809 123.242 262.762 122.891 267.491ZM252.728 273.469C253.276 273.736 253.805 274.056 254.375 274.262C257.503 275.389 261.09 274.236 263.07 271.497C265.079 268.716 264.925 265.014 262.684 262.225C260.654 259.699 257.058 258.782 254.041 260.022C248.459 262.314 247.64 269.247 252.728 273.469ZM170.138 165.935C172.846 161.279 169.749 156.484 166.293 155.147C162.166 153.55 157.576 155.76 156.203 160.072C155.105 163.522 156.696 167.245 160.026 169.015C163.464 170.842 167.295 169.756 170.138 165.935ZM186.149 176.002C186.128 176.613 186.052 177.228 186.095 177.834C186.321 180.99 187.956 183.243 190.839 184.37C193.779 185.519 196.609 185.104 198.925 182.787C201.114 180.598 201.954 178.002 200.903 174.971C199.793 171.77 196.983 169.786 193.606 169.784C190.132 169.782 187.658 171.754 186.149 176.002ZM228.558 168.175C231.911 165.003 232.472 161.369 230.13 157.995C228.018 154.954 223.961 153.803 220.737 155.332C216.609 157.289 215.018 162.117 217.224 165.987C219.469 169.924 224.319 170.964 228.558 168.175ZM124.857 327.917C128.44 331.383 133.357 331.274 136.273 327.665C139.152 324.1 138.486 319.166 134.779 316.591C131.733 314.475 127.748 314.855 125.115 317.511C122.313 320.338 122.151 323.992 124.857 327.917ZM264.051 325.239C264.096 325.041 264.138 324.841 264.187 324.644C264.952 321.56 264.028 318.954 261.652 316.997C259.201 314.979 256.367 314.568 253.478 316.06C250.707 317.491 249.311 319.867 249.312 322.993C249.312 326.457 251.745 329.461 255.07 330.201C259.017 331.079 261.942 329.537 264.051 325.239ZM282.077 212.423C286.098 210.232 287.625 206.208 285.905 202.338C284.309 198.749 280.104 197.004 276.346 198.372C272.54 199.758 270.533 204.057 271.854 207.995C273.208 212.03 277.288 213.897 282.077 212.423ZM102.667 210.519C105.559 213.378 109.445 213.847 112.656 211.726C115.522 209.833 116.714 205.788 115.317 202.505C114.043 199.512 111.646 197.98 108.489 197.883C105.575 197.794 103.198 199.075 101.794 201.704C100.212 204.667 100.45 207.571 102.667 210.519Z" fill="black"/>
<path d="M308.368 117.149C301.805 111.733 295.357 106.412 288.911 101.087C288.387 100.654 287.86 100.221 287.372 99.7494C285.57 98.0123 285.348 96.1194 286.738 94.5311C288.083 92.9939 290.183 92.8901 292.013 94.3831C296.016 97.6488 299.977 100.965 303.96 104.255C305.951 105.899 308 107.479 309.933 109.189C311.044 110.171 311.732 110.118 312.76 108.987C320.032 100.99 327.383 93.0653 334.692 85.1023C335.806 83.8891 337.023 82.9483 338.767 83.3396C341.534 83.9606 342.393 87.1624 340.339 89.4807C336.552 93.7541 332.689 97.9607 328.831 102.171C324.377 107.032 319.898 111.87 315.423 116.711C312.859 119.484 311.386 119.59 308.368 117.149Z" fill="black"/>
<path d="M181.081 274.586C197.866 274.584 214.447 274.591 231.028 274.568C232.733 274.566 234.287 274.696 235.241 276.394C236.199 278.099 235.477 279.508 234.596 280.953C229.463 289.376 223.232 296.781 214.479 301.605C201.339 308.847 188.315 308.285 175.704 300.247C167.98 295.324 162.241 288.462 157.676 280.591C155.74 277.255 157.285 274.599 161.102 274.591C167.693 274.577 174.285 274.586 181.081 274.586ZM201.676 281.678C190.256 281.678 178.835 281.678 167.172 281.678C173.371 291.528 186.691 301.761 201.015 299.135C209.525 297.575 223.813 287.512 224.906 281.677C217.275 281.677 209.68 281.677 201.676 281.678Z" fill="black"/>
<path d="M253.611 212.735C248.541 209.078 243.029 208.323 237.202 209.59C234.07 210.271 231.432 211.87 229.488 214.541C228.141 216.391 225.957 216.756 224.314 215.562C222.765 214.436 222.473 212.341 223.689 210.461C226.654 205.881 231.085 203.555 236.276 202.589C245.267 200.917 253.44 202.499 260.164 209.129C262.773 211.702 264.069 214.981 264.61 218.558C264.908 220.532 263.642 222.298 261.787 222.659C259.749 223.057 258.064 221.954 257.616 219.787C257.048 217.041 255.969 214.616 253.611 212.735Z" fill="black"/>
<path d="M151.649 209.079C147.494 208.855 143.745 209.6 140.347 211.704C137.592 213.409 135.604 215.689 135.038 219.044C134.569 221.825 132.926 223.059 130.572 222.604C128.526 222.208 127.562 220.241 128.073 217.574C128.93 213.099 131.206 209.543 134.828 206.789C142.973 200.595 156.505 200.3 164.71 206.174C166.274 207.293 167.612 208.626 168.654 210.248C169.954 212.27 169.76 214.348 168.163 215.521C166.561 216.699 164.399 216.347 162.98 214.499C160.152 210.817 156.317 209.317 151.649 209.079Z" fill="black"/>
<circle cx="163.5" cy="162.5" r="8.5" fill="#F24B4B"/>
<circle cx="224.5" cy="162.5" r="8.5" fill="#F24B4B"/>
<circle cx="193.5" cy="177.5" r="8.5" fill="#F24B4B"/>
<circle cx="279.5" cy="205.5" r="8.5" fill="#F24B4B"/>
<circle cx="256.5" cy="266.5" r="8.5" fill="#F24B4B"/>
<circle cx="256.5" cy="323.5" r="8.5" fill="#F24B4B"/>
<circle cx="194.5" cy="346.5" r="8.5" fill="#F24B4B"/>
<circle cx="130.5" cy="323.5" r="8.5" fill="#F24B4B"/>
<circle cx="130.5" cy="266.5" r="8.5" fill="#F24B4B"/>
<circle cx="107.5" cy="205.5" r="8.5" fill="#F24B4B"/>
</svg>
